<?xml version="1.0" encoding="UTF-8" standalone="no"?>
<svg
   width="154"
   height="154"
   viewBox="0 0 154 154"
   fill="none"
   version="1.1"
   id="svg6"
   sodipodi:docname="favicon.svg"
   inkscape:export-filename="icons\Icon-512.png"
   inkscape:export-xdpi="119.68831"
   inkscape:export-ydpi="119.68831"
   inkscape:version="1.3 (0e150ed6c4, 2023-07-21)"
   xmlns:inkscape="http://www.inkscape.org/namespaces/inkscape"
   xmlns:sodipodi="http://sodipodi.sourceforge.net/DTD/sodipodi-0.dtd"
   xmlns="http://www.w3.org/2000/svg"
   xmlns:svg="http://www.w3.org/2000/svg">
  <sodipodi:namedview
     id="namedview6"
     pagecolor="#ffffff"
     bordercolor="#000000"
     borderopacity="0.25"
     inkscape:showpageshadow="2"
     inkscape:pageopacity="0.0"
     inkscape:pagecheckerboard="0"
     inkscape:deskcolor="#d1d1d1"
     inkscape:zoom="3.6105769"
     inkscape:cx="65.778961"
     inkscape:cy="63.009321"
     inkscape:window-width="1920"
     inkscape:window-height="986"
     inkscape:window-x="-11"
     inkscape:window-y="-11"
     inkscape:window-maximized="1"
     inkscape:current-layer="svg6" />
  <mask
     id="path-1-inside-1"
     fill="#ffffff">
    <path
       d="m 80.826,81.1816 c 3.9052,3.9052 3.9452,10.3353 -0.6403,13.4133 -5.6178,3.771 -11.9518,6.4161 -18.6518,7.7491 -9.9879,1.987 -20.3406,0.967 -29.749,-2.93 C 22.3766,95.5169 14.3351,88.9175 8.67744,80.4502 3.01977,71.9829 6.27192e-7,62.028 0,51.8445 -6.27192e-7,41.6609 3.01977,31.7061 8.67744,23.2388 14.3351,14.7715 22.3766,8.17202 31.7849,4.27495 41.1933,0.377878 51.546,-0.641775 61.5339,1.34493 c 6.7,1.33273 13.034,3.97815 18.6518,7.74908 4.5855,3.07809 4.5455,9.50819 0.6403,13.41339 L 58.56,44.7734 c -3.9053,3.9053 -3.9053,10.2369 0,14.1422 z"
       id="path1" />
  </mask>
  <path
     d="m 80.826,81.1816 c 3.9052,3.9052 3.9452,10.3353 -0.6403,13.4133 -5.6178,3.771 -11.9518,6.4161 -18.6518,7.7491 -9.9879,1.987 -20.3406,0.967 -29.749,-2.93 C 22.3766,95.5169 14.3351,88.9175 8.67744,80.4502 3.01977,71.9829 6.27192e-7,62.028 0,51.8445 -6.27192e-7,41.6609 3.01977,31.7061 8.67744,23.2388 14.3351,14.7715 22.3766,8.17202 31.7849,4.27495 41.1933,0.377878 51.546,-0.641775 61.5339,1.34493 c 6.7,1.33273 13.034,3.97815 18.6518,7.74908 4.5855,3.07809 4.5455,9.50819 0.6403,13.41339 L 58.56,44.7734 c -3.9053,3.9053 -3.9053,10.2369 0,14.1422 z"
     stroke="url(#paint0_linear)"
     stroke-width="30"
     mask="url(#path-1-inside-1)"
     id="path2"
     style="stroke:url(#paint0_linear)"
     transform="translate(0,25.155475)" />
  <path
     d="m 146.5,77 c 0,24.3697 -19.544,44 -43.5,44 -23.9556,0 -43.5,-19.6303 -43.5,-44 0,-24.3697 19.5444,-44 43.5,-44 23.956,0 43.5,19.6303 43.5,44 z"
     stroke="url(#paint1_linear)"
     stroke-width="15"
     id="path3"
     style="stroke:url(#paint1_linear)" />
  <defs
     id="defs6">
    <linearGradient
       id="paint0_linear"
       x1="10.8642"
       y1="91.027496"
       x2="93.400803"
       y2="12.8159"
       gradientUnits="userSpaceOnUse">
      <stop
         stop-color="#fff"
         id="stop3" />
      <stop
         offset="1"
         stop-color="#fff"
         id="stop4" />
    </linearGradient>
    <linearGradient
       id="paint1_linear"
       x1="62.761002"
       y1="90.691498"
       x2="145.26801"
       y2="13.2668"
       gradientUnits="userSpaceOnUse"
       gradientTransform="translate(0,25.5)">
      <stop
         stop-color="#fff"
         id="stop5" />
      <stop
         offset="1"
         stop-color="#fff"
         id="stop6" />
    </linearGradient>
  </defs>
</svg>
